<?xml version="1.0" standalone="no"?>
<!DOCTYPE svg PUBLIC "-//W3C//DTD SVG 20010904//EN"
 "http://www.w3.org/TR/2001/REC-SVG-20010904/DTD/svg10.dtd">
<svg version="1.0" xmlns="http://www.w3.org/2000/svg"
 width="192.000000pt" height="192.000000pt" viewBox="0 0 192.000000 192.000000"
 preserveAspectRatio="xMidYMid meet">
<metadata>
Created by potrace 1.14, written by Peter Selinger 2001-2017
</metadata>
<g transform="translate(0.000000,192.000000) scale(0.100000,-0.100000)"
fill="#000000" stroke="none">
<path d="M876 1579 c-122 -18 -217 -84 -263 -186 -23 -49 -25 -65 -21 -153 3
-91 6 -102 40 -156 48 -79 127 -141 278 -219 141 -73 206 -126 215 -179 22
-117 -71 -206 -218 -206 -96 0 -119 16 -139 94 -9 33 -24 90 -35 126 l-18 65
-42 3 c-41 3 -42 2 -53 -35 -6 -21 -18 -98 -27 -172 l-17 -134 30 -24 c71 -58
302 -92 435 -64 126 26 219 96 267 200 23 48 27 69 27 151 -1 79 -4 102 -23
138 -50 94 -117 148 -302 243 -128 66 -205 135 -216 194 -16 85 38 156 128
169 52 7 168 -9 178 -24 4 -6 20 -56 35 -111 16 -55 34 -104 41 -110 7 -6 28
-9 46 -7 33 3 33 3 50 88 9 47 20 122 24 167 l7 83 -37 15 c-92 39 -280 60
-390 44z"/>
</g>
</svg>
